<?xml version="1.0" encoding="UTF-8"?>
<svg version="1.1" xmlns="http://www.w3.org/2000/svg" width="1024" height="1024">
<path d="M0 0 C337.92 0 675.84 0 1024 0 C1024 337.92 1024 675.84 1024 1024 C686.08 1024 348.16 1024 0 1024 C0 686.08 0 348.16 0 0 Z " fill="#FBFBFB" transform="translate(0,0)"/>
<path d="M0 0 C86.46 0 172.92 0 262 0 C267.28 5.28 272.56 10.56 278 16 C281.96 19.465 281.96 19.465 286 23 C289.15304541 26.10092895 292.26150631 29.23543275 295.35546875 32.39453125 C298.42540738 35.50308546 301.52629767 38.49926778 304.84375 41.34375 C310.74592746 46.43301844 316.11275745 52.06901135 321.578125 57.6171875 C322.41859375 58.46539062 323.2590625 59.31359375 324.125 60.1875 C324.87007812 60.94417969 325.61515625 61.70085937 326.3828125 62.48046875 C328.4803098 64.49970123 330.60598309 66.40859703 332.80859375 68.30859375 C337.04207205 71.98469704 340.99855052 75.88779172 344.9375 79.875 C345.66187256 80.60315918 346.38624512 81.33131836 347.13256836 82.08154297 C350.19542424 85.16056951 353.25222311 88.24558323 356.30957031 91.33007812 C358.55844117 93.59715458 360.81040238 95.86112966 363.0625 98.125 C363.73982178 98.81062012 364.41714355 99.49624023 365.11499023 100.20263672 C369.01614155 104.12348354 373.0330115 107.83338064 377.22094727 111.44580078 C379.38540864 113.33669705 381.42326528 115.32542783 383.4375 117.375 C384.56285156 118.51195312 384.56285156 118.51195312 385.7109375 119.671875 C387.23697917 121.22395833 388.76302083 122.77604167 390.2890625 124.328125 C394.38659814 128.46790327 398.5605374 132.4051215 402.97753906 136.20019531 C406.77975774 139.58382111 410.30880053 143.24623563 413.875 146.875 C415.37008161 148.39550816 416.86736644 149.91385411 418.3671875 151.4296875 C419.34341064 152.42331299 419.34341064 152.42331299 420.33935547 153.43701172 C421.93142515 155.08544452 421.93142515 155.08544452 424 156 C424 156.66 424 157.32 424 158 C424.66 158 425.32 158 426 158 C426 291.32 426 424.64 426 562 C420.72201157 560.24067052 415.56458332 558.50555877 410.39453125 556.50390625 C409.18015381 556.03428467 407.96577637 555.56466309 406.71459961 555.08081055 C405.41383252 554.57487982 404.11313458 554.06877127 402.8125 553.5625 C402.13671906 553.30022614 401.46093811 553.03795227 400.76467896 552.76773071 C389.72340062 548.48225448 378.71820319 544.11089612 367.72729492 539.69775391 C357.87383737 535.74198337 348.00310278 531.83129359 338.125 527.9375 C334.90491746 526.66804598 331.68485891 525.39853117 328.46484375 524.12890625 C327.63457672 523.80154984 326.80430969 523.47419342 325.94888306 523.13691711 C314.15821286 518.48666292 302.37545615 513.81638778 290.5916748 509.14871216 C280.52719637 505.16226916 270.46233992 501.17696209 260.38671875 497.21875 C259.65563904 496.93138977 258.92455933 496.64402954 258.17132568 496.34796143 C254.74785043 495.00255727 251.32361179 493.65916102 247.89794922 492.31933594 C242.00306597 490.00880219 236.13360569 487.65429701 230.30859375 485.171875 C229.28588379 484.73891113 228.26317383 484.30594727 227.20947266 483.85986328 C225.35567346 483.06966302 223.50707262 482.2670818 221.66552734 481.44873047 C220.46404053 480.93656982 220.46404053 480.93656982 219.23828125 480.4140625 C218.217948 479.96474365 218.217948 479.96474365 217.17700195 479.50634766 C211.9323743 478.28650267 206.98321908 480.62460614 202.15625 482.52734375 C201.4926799 482.78695892 200.8291098 483.0465741 200.14543152 483.3140564 C197.92809374 484.18306231 195.71410934 485.06030444 193.5 485.9375 C191.89320444 486.56916192 190.28618319 487.20025003 188.67895508 487.83081055 C185.23102547 489.18430773 181.78433456 490.54089955 178.33837891 491.89941406 C173.09881819 493.96339288 167.85290417 496.01082729 162.60546875 498.0546875 C137.20517636 507.95392843 111.85824567 517.98577165 86.52612305 528.05786133 C83.98360169 529.06862402 81.44102997 530.07925996 78.8984375 531.08984375 C77.96670495 531.46023553 77.96670495 531.46023553 77.01614952 531.83810997 C66.55311945 535.99662051 56.07487605 540.1153163 45.59246826 544.22468567 C39.35346243 546.67339806 33.12360641 549.14155569 26.9140625 551.6640625 C25.96725113 552.04797905 25.96725113 552.04797905 25.00131226 552.43965149 C22.57673003 553.42350922 20.1526325 554.40847606 17.73193359 555.40185547 C15.87823491 556.16145915 14.02119222 556.91288623 12.1640625 557.6640625 C10.59325928 558.30529053 10.59325928 558.30529053 8.99072266 558.95947266 C6 560 6 560 0 561 C0 375.87 0 190.74 0 0 Z " fill="#4169B4" transform="translate(299,231)"/>
<path d="M0 0 C33.10455627 -0.36681459 66.20858231 -0.64845088 99.31470954 -0.81704527 C103.22966645 -0.83705481 107.14461937 -0.85776414 111.05957031 -0.87890625 C111.83891442 -0.88310322 112.61825852 -0.88730018 113.42121911 -0.89162433 C126.01429487 -0.96110728 138.6061932 -1.0871797 151.19857216 -1.23444474 C164.13495783 -1.3844627 177.0707301 -1.47302187 190.00794983 -1.50541592 C197.98153187 -1.52729206 205.95178568 -1.59617486 213.92434204 -1.72666347 C220.05454742 -1.82184143 226.18225574 -1.83118793 232.31309891 -1.8097229 C234.81572491 -1.81410174 237.31848433 -1.84562774 239.82035446 -1.9072876 C260.65064244 -2.39520068 260.65064244 -2.39520068 269.07829094 5.50913334 C271.62710816 8.21860614 273.97023296 11.04514539 276.27141953 13.96615791 C278.64093868 16.75412633 281.31928903 19.05762888 284.12272835 21.39823055 C288.11047645 24.80074987 291.69033882 28.65224069 295.35546875 32.39453125 C298.42540738 35.50308546 301.52629767 38.49926778 304.84375 41.34375 C310.74592746 46.43301844 316.11275745 52.06901135 321.578125 57.6171875 C322.41859375 58.46539062 323.2590625 59.31359375 324.125 60.1875 C324.87007812 60.94417969 325.61515625 61.70085937 326.3828125 62.48046875 C328.4803098 64.49970123 330.60598309 66.40859703 332.80859375 68.30859375 C337.04207205 71.98469704 340.99855052 75.88779172 344.9375 79.875 C345.66187256 80.60315918 346.38624512 81.33131836 347.13256836 82.08154297 C350.19542424 85.16056951 353.25222311 88.24558323 356.30957031 91.33007812 C358.55844117 93.59715458 360.81040238 95.86112966 363.0625 98.125 C363.73982178 98.81062012 364.41714355 99.49624023 365.11499023 100.20263672 C369.01614155 104.12348354 373.0330115 107.83338064 377.22094727 111.44580078 C379.38540864 113.33669705 381.42326528 115.32542783 383.4375 117.375 C384.56285156 118.51195312 384.56285156 118.51195312 385.7109375 119.671875 C387.23697917 121.22395833 388.76302083 122.77604167 390.2890625 124.328125 C394.38659814 128.46790327 398.5605374 132.4051215 402.97753906 136.20019531 C406.77975774 139.58382111 410.30880053 143.24623563 413.875 146.875 C415.37008161 148.39550816 416.86736644 149.91385411 418.3671875 151.4296875 C419.34341064 152.42331299 419.34341064 152.42331299 420.33935547 153.43701172 C421.93142515 155.08544452 421.93142515 155.08544452 424 156 C424 156.66 424 157.32 424 158 C423.00966625 158.00634791 423.00966625 158.00634791 421.99932575 158.01282406 C405.93301844 158.11613867 389.86675729 158.22477765 373.80052662 158.33933926 C366.03101401 158.39461208 358.2614968 158.44808426 350.49194336 158.49731445 C343.71983211 158.54022912 336.94775386 158.58652538 330.17569369 158.63687855 C326.59011457 158.66342087 323.00454174 158.68827234 319.41892433 158.70907402 C315.41570808 158.73236174 311.41258406 158.76319915 307.40942383 158.79467773 C305.62702049 158.80331093 305.62702049 158.80331093 303.80860901 158.81211853 C302.17016022 158.82680176 302.17016022 158.82680176 300.49861145 158.84178162 C299.55193006 158.84823417 298.60524866 158.85468672 297.62987995 158.8613348 C294.99452591 159.00028863 292.57729958 159.45238772 290 160 C287.89340218 160.09042657 285.78431785 160.13063506 283.67578125 160.1328125 C281.88624023 160.13474609 281.88624023 160.13474609 280.06054688 160.13671875 C278.20526367 160.13091797 278.20526367 160.13091797 276.3125 160.125 C274.43981445 160.13080078 274.43981445 160.13080078 272.52929688 160.13671875 C270.74555664 160.13478516 270.74555664 160.13478516 268.92578125 160.1328125 C267.83692627 160.13168457 266.74807129 160.13055664 265.6262207 160.12939453 C263 160 263 160 261 159 C259.68316094 151.21014657 259.86484251 143.36310346 259.88647461 135.48413086 C259.88675714 134.03454592 259.88659745 132.58496083 259.8860321 131.13537598 C259.88574672 127.2248639 259.89160145 123.31438287 259.89860606 119.40387797 C259.90488284 115.30795498 259.90544681 111.21203118 259.90663147 107.11610413 C259.90973208 99.37092498 259.91792826 91.62576006 259.92798096 83.88058716 C259.93918165 75.05829917 259.9446625 66.23601049 259.94967639 57.41371715 C259.960112 39.27580339 259.97768673 21.13790284 260 3 C227.69297162 2.95440437 195.38595236 2.91899593 163.07889934 2.89786934 C159.26736187 2.89536784 155.45582448 2.8927792 151.64428711 2.89013672 C150.88545789 2.8896121 150.12662867 2.88908748 149.34480462 2.88854696 C137.0474881 2.8798372 124.75019021 2.8640641 112.45288476 2.84569441 C99.84080303 2.82701121 87.22873109 2.81588663 74.6166361 2.81182301 C66.83023691 2.80907466 59.0438904 2.80038488 51.25750742 2.78416707 C45.29342977 2.77237534 39.32937936 2.77108465 33.36528969 2.77378464 C30.91384684 2.77323237 28.46240208 2.76922717 26.01097107 2.76158905 C22.67510123 2.75170112 19.33946048 2.75400858 16.00358582 2.75949097 C14.5342423 2.75075244 14.5342423 2.75075244 13.03521508 2.74183738 C11.69908165 2.74781053 11.69908165 2.74781053 10.33595562 2.75390434 C9.56550307 2.7531449 8.79505052 2.75238546 8.00125092 2.75160301 C5.68330407 2.88758392 5.68330407 2.88758392 3 5 C2.55331645 7.86491812 2.55331645 7.86491812 2.64596558 11.29785156 C2.64410787 11.95187989 2.64225016 12.60590822 2.64033616 13.27975559 C2.63772552 15.48363981 2.65662103 17.68682574 2.67529297 19.890625 C2.67777588 21.46807201 2.67892342 23.04552162 2.67883301 24.62297058 C2.68154711 28.03388219 2.69382513 31.44458191 2.71337509 34.85543823 C2.74450289 40.29433325 2.75469449 45.73314767 2.76223755 51.17211914 C2.77677172 59.83086211 2.80569129 68.4894903 2.84048474 77.14817333 C2.90181897 92.49910687 2.94063595 107.85009916 2.97207749 123.20112038 C2.98361955 128.55828696 3.0017221 133.91537532 3.02547038 139.27250099 C3.1314209 164.19697791 2.71304419 189.08575399 2 214 C1.67 214 1.34 214 1 214 C-0.12842667 209.49412708 -0.13708038 205.07760163 -0.12025452 200.46427917 C-0.12110894 199.60654461 -0.12196337 198.74881004 -0.12284368 197.86508352 C-0.12449019 194.99230979 -0.11899066 192.11959451 -0.11352539 189.24682617 C-0.11324331 187.18700156 -0.11340165 185.12717685 -0.1139679 183.06735229 C-0.11425507 177.47484274 -0.10837118 171.88235458 -0.10139394 166.28985 C-0.09514717 160.44553851 -0.09455555 154.60122654 -0.09336853 148.75691223 C-0.09025913 137.68958423 -0.08205099 126.62226609 -0.07201904 115.55494243 C-0.06084579 102.95530936 -0.05534439 90.35567582 -0.05032361 77.75603902 C-0.03986807 51.83735388 -0.02227616 25.91867749 0 0 Z " fill="#88A5CF" transform="translate(299,231)"/>
<path d="M0 0 C6.43306953 -0.05171221 12.86608352 -0.08614542 19.29931641 -0.10986328 C21.47707114 -0.11977525 23.65481312 -0.13330874 25.83251953 -0.15087891 C40.6831874 -0.26748923 55.24023567 0.34624161 70 2 C71.26730957 2.13647949 72.53461914 2.27295898 73.84033203 2.41357422 C76.81459684 2.74809571 79.78195388 3.11470443 82.75 3.5 C83.73097656 3.61730469 84.71195313 3.73460937 85.72265625 3.85546875 C86.65464844 3.97535156 87.58664062 4.09523438 88.546875 4.21875 C89.76648926 4.3724707 89.76648926 4.3724707 91.01074219 4.52929688 C93 5 93 5 95 7 C84.73406967 14.52591334 84.73406967 14.52591334 81 16.9375 C60.45261679 31.06382596 45.02952833 50.00798213 32 71 C30.515 70.505 30.515 70.505 29 70 C28.21630859 68.11401367 28.21630859 68.11401367 27.6484375 65.66796875 C27.43703125 64.78689453 27.225625 63.90582031 27.0078125 62.99804688 C26.69457031 61.60682617 26.69457031 61.60682617 26.375 60.1875 C26.1584375 59.27162109 25.941875 58.35574219 25.71875 57.41210938 C25.31492504 55.7008388 24.91642071 53.98829796 24.52490234 52.27416992 C24.04064048 50.17607724 23.52918847 48.08715519 23 46 C-0.27924969 56.31837013 -18.434514 74.96992572 -27.79418945 98.66918945 C-34.35672509 116.35697633 -36.56437243 139.23325972 -29 157 C-25.56147518 155.71519319 -22.55241574 154.22472403 -19.4609375 152.25 C-18.63335937 151.7240625 -17.80578125 151.198125 -16.953125 150.65625 C-15.67695313 149.83640625 -15.67695313 149.83640625 -14.375 149 C-13.51648438 148.4534375 -12.65796875 147.906875 -11.7734375 147.34375 C-8.49712704 145.25510208 -5.23296491 143.15530994 -2 141 C-1.01 141 -0.02 141 1 141 C0.36177052 144.39937098 -0.9375576 146.71325415 -2.8515625 149.578125 C-3.4487207 150.48071045 -4.04587891 151.3832959 -4.66113281 152.31323242 C-5.30920898 153.28236572 -5.95728516 154.25149902 -6.625 155.25 C-12.96234723 164.83219828 -19.12027348 174.50950975 -25.16259766 184.28027344 C-26.04890869 185.70968262 -26.04890869 185.70968262 -26.953125 187.16796875 C-27.72897949 188.42516724 -27.72897949 188.42516724 -28.52050781 189.70776367 C-29.92578075 191.88500916 -31.41794882 193.94870135 -33 196 C-37.97902365 195.45105542 -41.5134978 193.12952339 -45.6875 190.5625 C-52.78309524 186.27605037 -59.96743762 182.20744743 -67.28588867 178.31274414 C-68.00494385 177.92207764 -68.72399902 177.53141113 -69.46484375 177.12890625 C-70.100271 176.78931885 -70.73569824 176.44973145 -71.39038086 176.09985352 C-73 175 -73 175 -75 172 C-73.10454608 171.51933465 -71.20861961 171.04053257 -69.3125 170.5625 C-68.25675781 170.29566406 -67.20101563 170.02882813 -66.11328125 169.75390625 C-63.4171683 169.10102068 -60.7242424 168.52058807 -58 168 C-58.82866151 162.32884778 -60.41244687 157.01308999 -62.0625 151.53515625 C-68.91925002 125.6794947 -62.62670811 98.37055915 -49.61328125 75.60546875 C-35.23247899 52.38029901 -13.90811786 34.13539387 11 23 C9.62892979 18.24791374 7.61368106 14.52283779 4.9375 10.375 C2.68734552 6.8838019 0.87039317 4.05309259 0 0 Z " fill="#F6F9FA" transform="translate(484,452)"/>
<path d="M0 0 C86.46 0 172.92 0 262 0 C264.2644589 4.52891781 263.94661878 5.27639989 263 10 C262.86189346 12.45889157 262.76677199 14.92038614 262.70288086 17.38232422 C262.68322769 18.09521103 262.66357452 18.80809784 262.64332581 19.54258728 C262.57986909 21.87986767 262.52231507 24.21725294 262.46484375 26.5546875 C262.42179775 28.18279982 262.37838106 29.81090237 262.33460999 31.43899536 C262.22077862 35.70991144 262.11196442 39.98094098 262.00421143 44.25201416 C261.89322031 48.61600617 261.77746139 52.97987146 261.66210938 57.34375 C261.43675236 65.8957168 261.21669805 74.44780943 261 83 C260.67 83 260.34 83 260 83 C260 56.6 260 30.2 260 3 C227.69296375 2.9559337 195.38595659 2.91899593 163.07889934 2.89786934 C159.26736187 2.89536784 155.45582448 2.8927792 151.64428711 2.89013672 C150.88545789 2.8896121 150.12662867 2.88908748 149.34480462 2.88854696 C137.0474881 2.8798372 124.75019021 2.8640641 112.45288476 2.84569441 C99.84080303 2.82701121 87.22873109 2.81588663 74.6166361 2.81182301 C66.83023691 2.80907466 59.0438904 2.80038488 51.25750742 2.78416707 C45.29342977 2.77237534 39.32937936 2.77108465 33.36528969 2.77378464 C30.91384684 2.77323237 28.46240208 2.76922717 26.01097107 2.76158905 C22.67510123 2.75170112 19.33946048 2.75400858 16.00358582 2.75949097 C14.5342423 2.75075244 14.5342423 2.75075244 13.03521508 2.74183738 C11.69908165 2.74781053 11.69908165 2.74781053 10.33595562 2.75390434 C9.56550307 2.7531449 8.79505052 2.75238546 8.00125092 2.75160301 C5.68330407 2.88758392 5.68330407 2.88758392 3 5 C2.55331645 7.86491812 2.55331645 7.86491812 2.64596558 11.29785156 C2.64410787 11.95187989 2.64225016 12.60590822 2.64033616 13.27975559 C2.63772552 15.48363981 2.65662103 17.68682574 2.67529297 19.890625 C2.67777588 21.46807201 2.67892342 23.04552162 2.67883301 24.62297058 C2.68154711 28.03388219 2.69382513 31.44458191 2.71337509 34.85543823 C2.74450289 40.29433325 2.75469449 45.73314767 2.76223755 51.17211914 C2.77677172 59.83086211 2.80569129 68.4894903 2.84048474 77.14817333 C2.90181897 92.49910687 2.94063595 107.85009916 2.97207749 123.20112038 C2.98361955 128.55828696 3.0017221 133.91537532 3.02547038 139.27250099 C3.1314209 164.19697791 2.71304419 189.08575399 2 214 C1.67 214 1.34 214 1 214 C-0.12842633 209.49412844 -0.1370842 205.07760431 -0.12025452 200.46427917 C-0.12111053 199.60860855 -0.12196655 198.75293793 -0.12284851 197.87133789 C-0.12450306 194.99647944 -0.11898106 192.1216793 -0.11352539 189.24682617 C-0.11321906 187.1536449 -0.11335255 185.06046352 -0.11389065 182.9672823 C-0.11411652 177.35902099 -0.10831827 171.75078099 -0.10128021 166.14252472 C-0.09558768 160.88102653 -0.09531722 155.61953355 -0.09460449 150.35803223 C-0.08935599 134.96785199 -0.07539485 119.57767573 -0.0625 104.1875 C-0.041875 69.805625 -0.02125 35.42375 0 0 Z " fill="#6B92C7" transform="translate(299,231)"/>
<path d="M0 0 C0 0.66 0 1.32 0 2 C0.86109375 2.12503906 1.7221875 2.25007812 2.609375 2.37890625 C5.95362082 2.99150427 9.02649396 3.86434786 12.25 4.9375 C13.28640625 5.27652344 14.3228125 5.61554687 15.390625 5.96484375 C18 7 18 7 20 9 C22.18657978 9.83008464 22.18657978 9.83008464 24.6875 10.5 C26.02554688 10.88285156 26.02554688 10.88285156 27.390625 11.2734375 C28.25171875 11.51320313 29.1128125 11.75296875 30 12 C31.31268331 12.37435783 32.62521183 12.74925937 33.9375 13.125 C34.948125 13.41375 35.95875 13.7025 37 14 C40 15 40 15 43 17 C44.65438613 17.69658363 46.32254318 18.36096883 48 19 C51.00941993 20.14644569 53.29717912 21.19811941 56 23 C57.65549531 23.38499891 59.3222433 23.72793135 61 24 C61 24.66 61 25.32 61 26 C61.60585938 26.09796875 62.21171875 26.1959375 62.8359375 26.296875 C69.30220382 27.45085484 74.97047511 29.44528247 81 32 C83.65865095 33.02289006 86.32863103 34.01060408 89 35 C89 35.66 89 36.32 89 37 C89.70125 36.938125 90.4025 36.87625 91.125 36.8125 C94.73704088 37.04806788 96.81106102 38.28287901 100 40 C104.92340801 42.31116815 109.8267767 44.31307936 115 46 C116.0725 46.474375 117.145 46.94875 118.25 47.4375 C121.88838188 49.03229734 125.61718041 50.13209258 129.42578125 51.24609375 C131.9798211 51.99409025 134.5251247 52.75973738 137.0625 53.5625 C137.79597656 53.79066406 138.52945312 54.01882813 139.28515625 54.25390625 C141 55 141 55 142 57 C144.59496176 58.10542439 147.16230654 59.1095433 149.8125 60.0625 C150.90014648 60.4656543 150.90014648 60.4656543 152.00976562 60.87695312 C155.3186994 62.09093523 158.56669466 63.18753843 162 64 C162 64.66 162 65.32 162 66 C162.721875 66.1340625 163.44375 66.268125 164.1875 66.40625 C167.702465 67.14829817 171.07375391 68.2105481 174.5 69.28125 C177.01639376 70.0488842 177.01639376 70.0488842 179.71875 70.5 C182.42774113 71.09375148 183.08343991 72.08343991 185 74 C187.60611077 74.72197162 187.60611077 74.72197162 190 75 C190 75.33 190 75.66 190 76 C184.64696601 76.28729882 180.57760022 75.42266162 175.69140625 73.38671875 C174.98955704 73.10590958 174.28770782 72.8251004 173.56459045 72.53578186 C171.22598176 71.59730607 168.89451073 70.64223989 166.5625 69.6875 C164.88186811 69.01010056 163.20070112 68.33402739 161.51904297 67.65917969 C157.90375484 66.20723088 154.29081815 64.7496246 150.67919922 63.28857422 C142.01474391 59.78962904 133.31989206 56.36737012 124.62841797 52.93624878 C119.55435322 50.93216437 114.48233369 48.92291761 109.41015625 46.9140625 C107.34912517 46.09797148 105.28809 45.28189078 103.22705078 44.46582031 C99.05611367 42.81422524 94.88522126 41.16251735 90.71435547 39.51074219 C85.51826468 37.45295286 80.32209368 35.39536622 75.12585449 33.33795166 C73.08994118 32.53182085 71.05405235 31.72562821 69.01818848 30.91937256 C59.15788715 27.01459737 49.29665975 23.11234759 39.42578125 19.234375 C38.32546066 18.80185425 38.32546066 18.80185425 37.20291138 18.3605957 C33.76810288 17.01063079 30.33254892 15.66263003 26.89550781 14.31835938 C21.00143153 12.00816828 15.1327992 9.65395332 9.30859375 7.171875 C8.28588379 6.73891113 7.26317383 6.30594727 6.20947266 5.85986328 C4.35567346 5.06966302 2.50707262 4.2670818 0.66552734 3.44873047 C-0.53595947 2.93656982 -0.53595947 2.93656982 -1.76171875 2.4140625 C-2.44194092 2.1145166 -3.12216309 1.8149707 -3.82299805 1.50634766 C-9.0676257 0.28650267 -14.01678092 2.62460614 -18.84375 4.52734375 C-19.83910515 4.91676651 -19.83910515 4.91676651 -20.85456848 5.3140564 C-23.07190626 6.18306231 -25.28589066 7.06030444 -27.5 7.9375 C-29.10679556 8.56916192 -30.71381681 9.20025003 -32.32104492 9.83081055 C-35.76897453 11.18430773 -39.21566544 12.54089955 -42.66162109 13.89941406 C-47.90118182 15.96339288 -53.14709637 18.0108259 -58.39453125 20.0546875 C-84.59272861 30.26496463 -110.7340589 40.61673509 -136.86078358 51.00821018 C-141.22195017 52.74246267 -145.58507896 54.47171384 -149.94873047 56.19970703 C-154.60077202 58.04268248 -159.24462117 59.90442595 -163.88330078 61.78076172 C-165.98596086 62.62347656 -168.08866041 63.46609293 -170.19140625 64.30859375 C-171.14780502 64.70039322 -172.1042038 65.09219269 -173.08958435 65.49586487 C-173.9618013 65.84326218 -174.83401825 66.19065948 -175.73266602 66.54858398 C-176.48918961 66.85489243 -177.2457132 67.16120087 -178.02516174 67.47679138 C-180 68 -180 68 -183 67 C-181.77023437 66.49339844 -181.77023437 66.49339844 -180.515625 65.9765625 C-179.43796875 65.53054688 -178.3603125 65.08453125 -177.25 64.625 C-176.18265625 64.18414063 -175.1153125 63.74328125 -174.015625 63.2890625 C-171.10676588 62.10150092 -171.10676588 62.10150092 -168.859375 60.8359375 C-167 60 -167 60 -163 60 C-163 59.34 -163 58.68 -163 58 C-161.67935547 57.61908203 -161.67935547 57.61908203 -160.33203125 57.23046875 C-159.17058594 56.88628906 -158.00914062 56.54210937 -156.8125 56.1875 C-155.66394531 55.85105469 -154.51539063 55.51460937 -153.33203125 55.16796875 C-150.22085708 54.07741649 -147.7603132 52.77518375 -145 51 C-144.278125 50.690625 -143.55625 50.38125 -142.8125 50.0625 C-140.82319527 49.12188331 -140.82319527 49.12188331 -140 46.9375 C-139 45 -139 45 -136.875 44.25 C-136.25625 44.1675 -135.6375 44.085 -135 44 C-134.67 44.66 -134.34 45.32 -134 46 C-129.98989502 45.34770936 -126.54354949 44.09438637 -122.8125 42.5 C-121.76707031 42.0565625 -120.72164063 41.613125 -119.64453125 41.15625 C-116.11162175 39.83680681 -116.11162175 39.83680681 -114 37 C-112.109375 36.69140625 -112.109375 36.69140625 -109.75 36.5625 C-105.75265285 36.21352525 -103.32262137 35.34537979 -100 33 C-99.01 32.67 -98.02 32.34 -97 32 C-96.34 31.01 -95.68 30.02 -95 29 C-93.42558084 29.06845301 -91.85122561 29.1388913 -90.27734375 29.21875 C-84.72288022 28.68521662 -77.95193071 25.95193071 -74 22 C-73.01 22 -72.02 22 -71 22 C-69.39768105 21.44815239 -67.81547412 20.83653974 -66.25 20.1875 C-65.36699219 19.82269531 -64.48398437 19.45789063 -63.57421875 19.08203125 C-62.72472656 18.72496094 -61.87523437 18.36789062 -61 18 C-60.30519531 17.71511719 -59.61039062 17.43023438 -58.89453125 17.13671875 C-56.0371092 15.94866481 -53.58674565 14.7244971 -51 13 C-49.11135762 12.53612293 -47.22202758 12.0747231 -45.328125 11.6328125 C-39.91248061 10.16077493 -34.66965138 8.11310092 -30 5 C-28.06368824 4.54053619 -26.1270342 4.08238378 -24.1875 3.63671875 C-21.88270789 2.96585962 -19.93581734 2.05143732 -17.8125 0.9375 C-11.25400355 -2.4561406 -7.00819845 -1.84747715 0 0 Z " fill="#445887" transform="translate(520,709)"/>
<path d="M0 0 C0.33 0 0.66 0 1 0 C2.11416389 26.35337683 2.13413876 52.69030063 2.10139394 79.06321907 C2.0950458 85.05951952 2.09454771 91.05582074 2.09336853 97.05212402 C2.09028841 108.35229825 2.08212086 119.65246253 2.07201904 130.95263243 C2.06075343 143.8406733 2.05532141 156.72871471 2.05032361 169.6167593 C2.03993458 196.07784499 2.02240102 222.53892193 2 249 C0.58208592 248.54554036 -0.83428046 248.08625056 -2.25 247.625 C-3.03890625 247.36976563 -3.8278125 247.11453125 -4.640625 246.8515625 C-6.86627958 246.04826333 -8.90931672 245.10288338 -11 244 C-7.30581799 242.768606 -4.7943739 243.35567236 -1 244 C-0.20033921 241.18186744 0.1245749 238.68550733 0.12304783 235.75963974 C0.12503888 234.91566061 0.12702993 234.07168148 0.12908131 233.20212722 C0.12616847 232.27995099 0.12325563 231.35777477 0.12025452 230.40765381 C0.12110894 229.42418354 0.12196337 228.44071328 0.12284368 227.42744088 C0.12449432 224.12315836 0.11898386 220.8189263 0.11352539 217.51464844 C0.1132434 215.14955649 0.11340148 212.78446446 0.1139679 210.41937256 C0.11425542 203.99005477 0.10836592 197.56075554 0.10139394 191.13144207 C0.09530885 185.09571792 0.09477135 179.05999226 0.09374207 173.02426556 C0.09155338 161.06923343 0.08489824 149.11420812 0.07543945 137.15917969 C0.06626061 125.54589878 0.05918208 113.93261974 0.05493164 102.31933594 C0.05466892 101.60350789 0.05440619 100.88767985 0.05413551 100.15016004 C0.05283047 96.55906549 0.05156676 92.96797093 0.05032361 89.37687635 C0.03995669 59.58457954 0.022269 29.7922904 0 0 Z " fill="#425B8A" transform="translate(723,544)"/>
<path d="M0 0 C2.32590854 3.63423209 2.16265833 6.77088331 2 11 C-0.5654594 8.4345406 -0.54046087 6.52313332 -1 3 C-2.75215106 3.93347358 -4.50163563 4.8719532 -6.25 5.8125 C-7.22453125 6.33457031 -8.1990625 6.85664063 -9.203125 7.39453125 C-11.97527893 8.89761004 -11.97527893 8.89761004 -14.171875 10.69921875 C-16 12 -16 12 -19 12 C-19.268125 12.598125 -19.53625 13.19625 -19.8125 13.8125 C-21.71162349 17.31088537 -23.20036361 18.73345454 -27 20 C-30.40598333 23.065385 -32.73983318 26.04470806 -35 30 C-35.82084541 31.19616617 -36.6551195 32.38318764 -37.5 33.5625 C-37.93054688 34.16449219 -38.36109375 34.76648438 -38.8046875 35.38671875 C-40 37 -40 37 -41.625 38.875 C-43.43722449 41.67571058 -44.23770366 44.58820796 -45.15625 47.78125 C-46 50 -46 50 -47.49609375 51.9609375 C-49.23908046 54.32415585 -49.83859136 56.28727814 -50.5625 59.125 C-50.80742187 60.08277344 -51.05234375 61.04054688 -51.3046875 62.02734375 C-52.31153716 66.33190887 -53.19845017 70.65277094 -54 75 C-53.34 75.33 -52.68 75.66 -52 76 C-52.495 76.99 -52.495 76.99 -53 78 C-53.66 78 -54.32 78 -55 78 C-54.88608368 80.60508636 -54.75934452 83.20845546 -54.625 85.8125 C-54.57859375 86.91948242 -54.57859375 86.91948242 -54.53125 88.04882812 C-54.32653852 91.81893115 -54.13566173 93.79650741 -52 97 C-52 98.32 -52 99.64 -52 101 C-51.67 101.99 -51.34 102.98 -51 104 C-51.4375 106.1875 -51.4375 106.1875 -52 108 C-49.20748391 107.58629391 -47.91761969 106.93320515 -45.6875 105.125 C-42.63234534 102.70929632 -39.5690432 101.52958994 -36 100 C-34.3174387 98.68678142 -32.65002828 97.35386936 -31 96 C-25.70030624 92.86344655 -25.70030624 92.86344655 -22.81640625 93.42578125 C-22.21699219 93.61527344 -21.61757813 93.80476562 -21 94 C-21.66902344 94.37769531 -22.33804688 94.75539063 -23.02734375 95.14453125 C-27.93709565 97.95857697 -32.76485405 100.81511819 -37.4765625 103.94921875 C-38.23590088 104.45283936 -38.99523926 104.95645996 -39.77758789 105.4753418 C-41.29052863 106.48488501 -42.79766167 107.50319124 -44.29858398 108.53051758 C-44.99540283 108.99482178 -45.69222168 109.45912598 -46.41015625 109.9375 C-47.34033569 110.56978516 -47.34033569 110.56978516 -48.28930664 111.21484375 C-50 112 -50 112 -53 111 C-60.57322259 95.77411542 -58.51949919 72.53958752 -53.29980469 56.90234375 C-48.1908871 42.53311138 -40.54496419 31.02690954 -30 20 C-29.44957031 19.38640625 -28.89914062 18.7728125 -28.33203125 18.140625 C-22.28124167 11.62668856 -9.20988852 0 0 0 Z " fill="#4A659A" transform="translate(507,498)"/>
<path d="M0 0 C0.33 0 0.66 0 1 0 C1.00173625 0.83466885 1.0034725 1.66933771 1.00526136 2.52929956 C1.10820243 51.95581319 1.21629604 101.38231324 1.33111694 150.80880078 C1.34488716 156.7383378 1.35861416 162.66787492 1.37231445 168.59741211 C1.37504276 169.77791801 1.37777106 170.95842392 1.38058204 172.17470273 C1.42470389 191.31035564 1.46532137 210.44601448 1.50465261 229.58167777 C1.54506256 249.20436668 1.58921789 268.82704457 1.63687855 288.44971722 C1.66618866 300.56612357 1.69254794 312.68252905 1.71517897 324.79894974 C1.73095958 333.09816379 1.75036536 341.39736433 1.77266841 349.6965634 C1.78544365 354.49074021 1.79657602 359.28490658 1.80341911 364.07909584 C1.8097116 368.46292321 1.8205271 372.84671463 1.8350333 377.2305223 C1.83948248 378.82140915 1.84223135 380.4123018 1.84316199 382.00319461 C1.84466316 384.15617013 1.85220675 386.30904046 1.8613348 388.46199512 C1.86399284 389.66077221 1.86665089 390.85954929 1.86938947 392.09465295 C1.87038969 395.06667485 1.87038969 395.06667485 3 398 C2.0625 400.1875 2.0625 400.1875 1 402 C0.67 402 0.34 402 0 402 C0 269.34 0 136.68 0 0 Z " fill="#E1F0FE" transform="translate(725,390)"/>
<path d="M0 0 C17.49 0 34.98 0 53 0 C53 61.71 53 123.42 53 187 C52.67 187 52.34 187 52 187 C51.15548901 164.94574332 50.85908651 142.92915169 50.89860606 120.86024284 C50.905007 116.65768488 50.90545624 112.45512557 50.90663147 108.25256348 C50.90969681 100.35231998 50.91784299 92.4520909 50.92798096 84.55185366 C50.93929433 75.53314733 50.94469025 66.51444019 50.94967639 57.49572849 C50.96003169 38.99714426 50.97753449 20.4985733 51 2 C49.73929688 2.00523682 48.47859375 2.01047363 47.1796875 2.01586914 C42.475756 2.03405064 37.77182757 2.04547987 33.06787109 2.05493164 C31.03694129 2.05994189 29.00601506 2.06675191 26.97509766 2.07543945 C24.04588943 2.08765047 21.11672915 2.09326153 18.1875 2.09765625 C17.28821777 2.10281754 16.38893555 2.10797882 15.46240234 2.11329651 C10.21430933 2.11375728 5.19375999 1.76270154 0 1 C0 0.67 0 0.34 0 0 Z " fill="#516D9F" transform="translate(672,389)"/>
<path d="M0 0 C0.33 0 0.66 0 1 0 C1.81042378 20.58276456 2.27375654 41.15522419 2.53263092 61.75139236 C2.56304315 64.16816246 2.59432331 66.58492034 2.62567139 69.00167847 C3.24145516 117.00089211 3.57752245 165.01562689 2 213 C1.67 213 1.34 213 1 213 C-0.12414455 208.50580983 -0.1371183 204.10343519 -0.12025452 199.50224304 C-0.12110894 198.64859203 -0.12196337 197.79494101 -0.12284368 196.91542178 C-0.12449013 194.05646749 -0.11899077 191.19757193 -0.11352539 188.33862305 C-0.11324331 186.28865053 -0.11340166 184.23867791 -0.1139679 182.18870544 C-0.11425507 176.62305449 -0.10837126 171.05742504 -0.10139394 165.49177909 C-0.09514708 159.67549482 -0.09455554 153.85921008 -0.09336853 148.04292297 C-0.09025915 137.0287189 -0.08205105 126.01452473 -0.07201904 115.00032502 C-0.06084571 102.4611503 -0.05534437 89.92197511 -0.05032361 77.38279665 C-0.03986813 51.5885256 -0.02227628 25.79426335 0 0 Z " fill="#5E81B9" transform="translate(299,232)"/>
<path d="M0 0 C0.33 0 0.66 0 1 0 C2.06666506 7.22071222 2.3391742 14.41315664 2.57006836 21.70361328 C2.59133722 22.3582922 2.61260608 23.01297112 2.63451946 23.68748879 C3.0919754 38.04254767 3.03972855 52.38154089 2.87890625 66.7421875 C2.85450018 69.34489434 2.83066266 71.94760656 2.80735779 74.55032349 C2.75180876 80.60551033 2.69070007 86.66061551 2.62663645 92.71571743 C2.55378287 99.63279942 2.48842904 106.54994673 2.42356598 113.46710753 C2.290459 127.64482261 2.14838609 141.82243698 2 156 C5.70549801 155.08208727 9.38491946 154.0872727 13.0625 153.0625 C14.29097656 152.72347656 15.51945312 152.38445312 16.78515625 152.03515625 C20.10364404 151.12805881 20.10364404 151.12805881 23 149 C23.99 149 24.98 149 26 149 C26.33 148.34 26.66 147.68 27 147 C30.78468721 145.45171887 33.91781703 144.75987159 38 145 C34.6413228 147.83985287 30.99757284 149.36895468 26.93359375 150.91796875 C26.25829117 151.18007645 25.58298859 151.44218414 24.88722229 151.7122345 C23.46546513 152.26230878 22.04249788 152.80926439 20.6184082 153.35327148 C18.43816193 154.1872468 16.26288549 155.0332962 14.08789062 155.88085938 C12.7034044 156.41478756 11.31864771 156.94801504 9.93359375 157.48046875 C9.28353867 157.73354294 8.63348358 157.98661713 7.96372986 158.24736023 C5.14578116 159.31685266 3.04397707 160 0 160 C0 107.2 0 54.4 0 0 Z " fill="#3C507F" transform="translate(299,632)"/>
<path d="M0 0 C0 0.66 0 1.32 0 2 C-13.94529861 7.75155735 -27.91983034 13.39969143 -42 18.8125 C-52.61309077 22.89290318 -63.19252014 27.04909739 -73.74536133 31.28302002 C-75.97760223 32.17851482 -78.2103958 33.07261752 -80.44335938 33.96630859 C-88.59142215 37.22683079 -88.59142215 37.22683079 -96.73046875 40.50976562 C-99.98391143 41.82680877 -103.24140393 43.1332732 -106.5 44.4375 C-107.43714844 44.82123779 -108.37429688 45.20497559 -109.33984375 45.6003418 C-110.18675781 45.93718994 -111.03367187 46.27403809 -111.90625 46.62109375 C-112.99389648 47.06086548 -112.99389648 47.06086548 -114.10351562 47.50952148 C-116 48 -116 48 -119 47 C-118.18015625 46.66226563 -117.3603125 46.32453125 -116.515625 45.9765625 C-115.43796875 45.53054688 -114.3603125 45.08453125 -113.25 44.625 C-112.18265625 44.18414063 -111.1153125 43.74328125 -110.015625 43.2890625 C-107.10676588 42.10150092 -107.10676588 42.10150092 -104.859375 40.8359375 C-103 40 -103 40 -99 40 C-99 39.34 -99 38.68 -99 38 C-97.67935547 37.61908203 -97.67935547 37.61908203 -96.33203125 37.23046875 C-95.17058594 36.88628906 -94.00914062 36.54210937 -92.8125 36.1875 C-91.66394531 35.85105469 -90.51539063 35.51460937 -89.33203125 35.16796875 C-86.22085708 34.07741649 -83.7603132 32.77518375 -81 31 C-80.278125 30.690625 -79.55625 30.38125 -78.8125 30.0625 C-76.82319527 29.12188331 -76.82319527 29.12188331 -76 26.9375 C-75 25 -75 25 -72.875 24.25 C-71.946875 24.12625 -71.946875 24.12625 -71 24 C-70.505 24.99 -70.505 24.99 -70 26 C-65.98989502 25.34770936 -62.54354949 24.09438637 -58.8125 22.5 C-57.76707031 22.0565625 -56.72164063 21.613125 -55.64453125 21.15625 C-52.11162175 19.83680681 -52.11162175 19.83680681 -50 17 C-48.109375 16.69140625 -48.109375 16.69140625 -45.75 16.5625 C-41.75265285 16.21352525 -39.32262137 15.34537979 -36 13 C-35.01 12.67 -34.02 12.34 -33 12 C-32.34 11.01 -31.68 10.02 -31 9 C-29.42558084 9.06845301 -27.85122561 9.1388913 -26.27734375 9.21875 C-20.72288022 8.68521662 -13.95193071 5.95193071 -10 2 C-9.01 2 -8.02 2 -7 2 C-6.34 1.67 -5.68 1.34 -5 1 C-3 0 -3 0 0 0 Z " fill="#3C4F82" transform="translate(456,729)"/>
<path d="M0 0 C0.33 0 0.66 0 1 0 C2.09742675 19.83533899 2.12272849 39.62995032 2.06866455 59.48797607 C2.05824752 63.73286425 2.05382847 67.97775885 2.04882812 72.22265625 C2.03825359 80.48178781 2.02129483 88.74088913 2 97 C0.58208592 96.54554036 -0.83428046 96.08625056 -2.25 95.625 C-3.43335938 95.24214844 -3.43335938 95.24214844 -4.640625 94.8515625 C-6.86627958 94.04826333 -8.90931672 93.10288338 -11 92 C-7.30581799 90.768606 -4.7943739 91.35567236 -1 92 C0.16867153 87.82080216 0.13269261 83.77798283 0.11352539 79.46777344 C0.11367142 78.60887512 0.11381744 77.74997681 0.1139679 76.86505127 C0.11327196 74.02980004 0.10549445 71.19461474 0.09765625 68.359375 C0.09579094 66.39211055 0.09436757 64.42484564 0.09336853 62.45758057 C0.08955227 57.28233556 0.07972956 52.10711867 0.06866455 46.93188477 C0.0584313 41.64990621 0.0538668 36.36792311 0.04882812 31.0859375 C0.03810651 20.72394599 0.02104075 10.36197533 0 0 Z " fill="#3A4F7A" transform="translate(723,696)"/>
<path d="M0 0 C0.66 0 1.32 0 2 0 C0.73395818 3.79812546 -0.92044838 4.74560293 -4.0625 7.1875 C-21.96832487 21.55836848 -33.11115215 39.74188975 -41 61 C-41.51240234 62.34771484 -41.51240234 62.34771484 -42.03515625 63.72265625 C-42.70068508 65.47779507 -43.35274897 67.23803888 -44 69 C-44.33 69 -44.66 69 -45 69 C-45 66.69 -45 64.38 -45 62 C-44.34 62 -43.68 62 -43 62 C-42.93683594 61.42894531 -42.87367188 60.85789062 -42.80859375 60.26953125 C-41.76244164 53.34290306 -39.13286605 48.02771828 -35.65625 41.98046875 C-34.19960107 39.35918778 -33.03802602 36.80786039 -32 34 C-31.34 34 -30.68 34 -30 34 C-29.87625 33.4225 -29.7525 32.845 -29.625 32.25 C-28.99351176 29.97664233 -28.11141809 28.0746471 -27 26 C-26.34 26 -25.68 26 -25 26 C-24.690625 24.9790625 -24.690625 24.9790625 -24.375 23.9375 C-21.3947307 17.57056105 -16.18512045 13.11537306 -10.88671875 8.64453125 C-9.21978056 7.19156856 -7.74081222 5.69092565 -6.25 4.0625 C-4 2 -4 2 0 2 C0 1.34 0 0.68 0 0 Z " fill="#4968A0" transform="translate(466,490)"/>
<path d="M0 0 C8.2160411 0.08507116 16.43188271 0.18019965 24.64766026 0.28752708 C28.46420862 0.33708251 32.28073459 0.38340916 36.09741211 0.421875 C39.79340877 0.45925144 43.48919677 0.50573792 47.18501091 0.55806351 C48.58207406 0.57633404 49.97918143 0.59153803 51.37631416 0.60334396 C61.08879222 0.68820782 70.41697458 1.51528857 80 3 C80 3.33 80 3.66 80 4 C83.96 4.33 87.92 4.66 92 5 C88.12990967 7.58006022 85.56069455 6.86126481 81.1875 6.25 C61.99764518 3.80286902 42.96529312 2.65764091 23.625 2.375 C21.41274755 2.33667291 19.20050767 2.29761365 16.98828125 2.2578125 C11.65896854 2.16348071 6.3295754 2.07800895 1 2 C1.66 3.65 2.32 5.3 3 7 C0.525 6.01 0.525 6.01 -2 5 C-1.34 3.35 -0.68 1.7 0 0 Z " fill="#5373AB" transform="translate(483,450)"/>
<path d="M0 0 C0.66 0 1.32 0 2 0 C0.58163643 5.1576857 -1.67391575 9.79975258 -5 14 C-5.66 14 -6.32 14 -7 14 C-7.268125 14.86625 -7.53625 15.7325 -7.8125 16.625 C-9.68653332 21.95119996 -11.90663103 26.09230818 -15.609375 30.375 C-20.32019612 35.87977973 -23.94864934 41.42786011 -27 48 C-27.66 47.67 -28.32 47.34 -29 47 C-25.83563724 40.40807932 -22.39217905 34.14827979 -18.4375 28 C-17.92590332 27.19908936 -17.41430664 26.39817871 -16.88720703 25.57299805 C-15.26562302 23.04375204 -13.63407754 20.52118949 -12 18 C-11.4416748 17.13455566 -10.88334961 16.26911133 -10.30810547 15.37744141 C-8.67292426 12.84965477 -7.02645607 10.32967735 -5.375 7.8125 C-4.86638428 7.02810547 -4.35776855 6.24371094 -3.83374023 5.43554688 C-3.36009033 4.72076172 -2.88644043 4.00597656 -2.3984375 3.26953125 C-1.98255371 2.63635986 -1.56666992 2.00318848 -1.13818359 1.35083008 C-0.76258301 0.90505615 -0.38698242 0.45928223 0 0 Z " fill="#3F5789" transform="translate(480,602)"/>
<path d="M0 0 C1.5625 1.125 1.5625 1.125 3 3 C2.70423776 5.00590025 2.36292294 7.00515714 2 9 C1.86189346 11.45889157 1.76677199 13.92038614 1.70288086 16.38232422 C1.68322769 17.09521103 1.66357452 17.80809784 1.64332581 18.54258728 C1.57986909 20.87986767 1.52231507 23.21725294 1.46484375 25.5546875 C1.42179775 27.18279982 1.37838106 28.81090237 1.33460999 30.43899536 C1.22077862 34.70991144 1.11196442 38.98094098 1.00421143 43.25201416 C0.89322031 47.61600617 0.77746139 51.97987146 0.66210938 56.34375 C0.43675236 64.8957168 0.21669805 73.44780943 0 82 C-0.33 82 -0.66 82 -1 82 C-1.02317862 72.04680532 -1.04094327 62.09361707 -1.05181217 52.14040089 C-1.0570289 47.51863972 -1.06410463 42.89689702 -1.07543945 38.27514648 C-1.08631127 33.81422939 -1.09228596 29.35333006 -1.09487724 24.89240074 C-1.09672374 23.19117643 -1.10032947 21.48995308 -1.10573006 19.78873634 C-1.11299745 17.40446502 -1.11398853 15.02026696 -1.11352539 12.63598633 C-1.11712067 11.93395584 -1.12071594 11.23192535 -1.12442017 10.50862122 C-1.11679817 6.87820457 -0.86036794 3.53072332 0 0 Z " fill="#6A96D5" transform="translate(560,232)"/>
<path d="M0 0 C-0.59925491 2.88305128 -1.45146232 4.99659057 -3.06640625 7.453125 C-3.46923828 8.071875 -3.87207031 8.690625 -4.28710938 9.328125 C-4.70798828 9.96234375 -5.12886719 10.5965625 -5.5625 11.25 C-5.98724609 11.8996875 -6.41199219 12.549375 -6.84960938 13.21875 C-7.8947306 14.81578918 -8.94669837 16.4083442 -10 18 C-10.99 17.01 -11.98 16.02 -13 15 C-12.67 14.34 -12.34 13.68 -12 13 C-14.64 12.67 -17.28 12.34 -20 12 C-17.16121318 8.77505468 -13.58231985 6.61384687 -10 4.3125 C-9.05640625 3.68891602 -9.05640625 3.68891602 -8.09375 3.05273438 C-3.36176108 0 -3.36176108 0 0 0 Z " fill="#ECF4FA" transform="translate(485,593)"/>
<path d="M0 0 C-1.00353516 0.56654297 -1.00353516 0.56654297 -2.02734375 1.14453125 C-6.93709565 3.95857697 -11.76485405 6.81511819 -16.4765625 9.94921875 C-17.23590088 10.45283936 -17.99523926 10.95645996 -18.77758789 11.4753418 C-20.29052863 12.48488501 -21.79766167 13.50319124 -23.29858398 14.53051758 C-23.99540283 14.99482178 -24.69222168 15.45912598 -25.41015625 15.9375 C-26.34033569 16.56978516 -26.34033569 16.56978516 -27.28930664 17.21484375 C-29 18 -29 18 -32 17 C-34.33179059 12.85459451 -35.10632957 7.73166583 -35 3 C-34.34 2.01 -33.68 1.02 -33 0 C-31 3 -31 3 -31 7 C-30.67 7.99 -30.34 8.98 -30 10 C-30.4375 12.1875 -30.4375 12.1875 -31 14 C-28.20748391 13.58629391 -26.91761969 12.93320515 -24.6875 11.125 C-21.63234534 8.70929632 -18.5690432 7.52958994 -15 6 C-13.3174387 4.68678142 -11.65002828 3.35386936 -10 2 C-6.11750642 -0.29780232 -4.30198404 -1.35998205 0 0 Z " fill="#496399" transform="translate(486,592)"/>
<path d="M0 0 C0.33 0 0.66 0 1 0 C1.06993164 0.65371582 1.13986328 1.30743164 1.21191406 1.98095703 C3.01037269 18.81840581 3.01037269 18.81840581 7.1328125 35.1953125 C8.03642296 38.11780038 8.5603071 40.97598964 9 44 C4.49646738 45.75747614 0.82360189 46.19294408 -4 46 C-4 45.34 -4 44.68 -4 44 C-2.5422647 43.664061 -1.08378894 43.33133376 0.375 43 C1.18710937 42.814375 1.99921875 42.62875 2.8359375 42.4375 C5 42 5 42 7 42 C6.52836426 41.5963623 6.05672852 41.19272461 5.57080078 40.77685547 C3.70841393 38.67016422 3.37856251 37.31633401 2.8671875 34.5703125 C2.61811646 33.26223633 2.61811646 33.26223633 2.36401367 31.92773438 C2.20263916 31.00283203 2.04126465 30.07792969 1.875 29.125 C1.70395752 28.18205078 1.53291504 27.23910156 1.35668945 26.26757812 C-1.87180829 7.88731431 -1.87180829 7.88731431 0 0 Z " fill="#476091" transform="translate(418,576)"/>
<path d="M0 0 C17.49 0 34.98 0 53 0 C53 6.63369467 52.9684185 13.09799108 52.5 19.6875 C52.45230469 20.40099609 52.40460937 21.11449219 52.35546875 21.84960938 C52.24023262 23.5666277 52.12061772 25.28335133 52 27 C51.67 27 51.34 27 51 27 C51 18.75 51 10.5 51 2 C47.98875 2.01160156 44.9775 2.02320313 41.875 2.03515625 C38.93929143 2.04296833 36.00358405 2.04903284 33.06787109 2.05493164 C31.03694129 2.05994189 29.00601506 2.06675191 26.97509766 2.07543945 C24.04588943 2.08765047 21.11672915 2.09326153 18.1875 2.09765625 C17.28821777 2.10281754 16.38893555 2.10797882 15.46240234 2.11329651 C10.21430933 2.11375728 5.19375999 1.76270154 0 1 C0 0.67 0 0.34 0 0 Z " fill="#4B6797" transform="translate(672,389)"/>
<path d="M0 0 C0 3.75576133 -1.00674357 4.54275863 -3.375 7.375 C-5.42557208 9.83062336 -6.89542298 11.72558361 -8.0390625 14.7265625 C-8.35617187 15.47679687 -8.67328125 16.22703125 -9 17 C-9.99 17.33 -10.98 17.66 -12 18 C-11.8453125 19.3921875 -11.8453125 19.3921875 -11.6875 20.8125 C-11.790625 21.864375 -11.89375 22.91625 -12 24 C-14.375 25.625 -14.375 25.625 -17 27 C-17.350625 27.70125 -17.70125 28.4025 -18.0625 29.125 C-19 31 -19 31 -21.125 31.75 C-22.053125 31.87375 -22.053125 31.87375 -23 32 C-23 31.34 -23 30.68 -23 30 C-22.34 30 -21.68 30 -21 30 C-20.78730469 29.34644531 -20.57460938 28.69289063 -20.35546875 28.01953125 C-18.49507326 23.87519202 -15.9510956 20.37178216 -13.3125 16.6875 C-12.77592773 15.93218994 -12.23935547 15.17687988 -11.68652344 14.39868164 C-8.06253763 9.34771047 -4.31790577 4.4851486 0 0 Z " fill="#4C679D" transform="translate(537,493)"/>
<path d="M0 0 C2.475 0.495 2.475 0.495 5 1 C3.51821862 5.69230769 3.51821862 5.69230769 1 7.1875 C0.34 7.455625 -0.32 7.72375 -1 8 C-1.66 8.66 -2.32 9.32 -3 10 C-4.3153341 10.70151152 -5.65117592 11.36525925 -7 12 C-7.99 12.495 -7.99 12.495 -9 13 C-9.99 13.495 -9.99 13.495 -11 14 C-11.680625 14.391875 -12.36125 14.78375 -13.0625 15.1875 C-15 16 -15 16 -18 15 C-15.77252265 13.39344326 -13.54310558 11.78970321 -11.3125 10.1875 C-10.68666016 9.73568359 -10.06082031 9.28386719 -9.41601562 8.81835938 C-6.02395307 6.38530927 -2.62260784 4.08490432 1 2 C0.67 1.34 0.34 0.68 0 0 Z " fill="#5274AF" transform="translate(577,457)"/>
<path d="M0 0 C6.25708088 2.35250175 11.93097226 5.74029717 17.75 9 C18.92309426 9.64858733 20.09627057 10.29702628 21.26953125 10.9453125 C22.92275391 11.86957031 22.92275391 11.86957031 24.609375 12.8125 C26.1248291 13.65748047 26.1248291 13.65748047 27.67089844 14.51953125 C30 16 30 16 31 18 C26.75187889 16.72556367 22.96035303 15.03885214 19.03515625 13.01953125 C16.0785638 11.5383976 13.05187206 10.27161336 10 9 C10 8.34 10 7.68 10 7 C9.0925 6.773125 8.185 6.54625 7.25 6.3125 C3.55111676 4.81872023 2.22094342 3.24599423 0 0 Z " fill="#40588A" transform="translate(406,624)"/>
<path d="M0 0 C0.66 0 1.32 0 2 0 C1.04923164 4.26437214 -0.84004993 7.97188807 -2.75 11.875 C-6.3881439 19.43183711 -9.3746213 27.03550981 -12 35 C-12.33 35 -12.66 35 -13 35 C-13 32.69 -13 30.38 -13 28 C-12.34 28 -11.68 28 -11 28 C-10.93683594 27.42894531 -10.87367188 26.85789062 -10.80859375 26.26953125 C-9.76244164 19.34290306 -7.13286605 14.02771828 -3.65625 7.98046875 C-2.19960107 5.35918778 -1.03802602 2.80786039 0 0 Z " fill="#49649A" transform="translate(434,524)"/>
<path d="M0 0 C1.5 1.25 1.5 1.25 3 3 C3 4.32 3 5.64 3 7 C3.33 7.99 3.66 8.98 4 10 C3.5625 12.1875 3.5625 12.1875 3 14 C4.65 13.67 6.3 13.34 8 13 C8 13.99 8 14.98 8 16 C6.35 16.66 4.7 17.32 3 18 C0.12091271 13.11806937 -0.95720418 8.61695125 -1 3 C-0.67 2.01 -0.34 1.02 0 0 Z " fill="#415D91" transform="translate(452,592)"/>
<path d="M0 0 C5.20833333 0.52083333 10.41666667 1.04166667 15.625 1.5625 C16.46289062 1.64628906 17.30078125 1.73007812 18.1640625 1.81640625 C18.76992188 1.87699219 19.37578125 1.93757813 20 2 C20 2.33 20 2.66 20 3 C23.96 3.33 27.92 3.66 32 4 C27.96149568 6.69233621 24.88896318 5.80534103 20.3125 5.1875 C19.53455078 5.09146484 18.75660156 4.99542969 17.95507812 4.89648438 C15.63523732 4.60819724 13.31773904 4.30466776 11 4 C9.47280551 3.80740643 7.94547084 3.61591976 6.41796875 3.42578125 C5.29003906 3.28527344 4.16210938 3.14476562 3 3 C3 2.34 3 1.68 3 1 C2.01 0.67 1.02 0.34 0 0 Z " fill="#6281B5" transform="translate(543,451)"/>
<path d="M0 0 C0 3 0 3 -2 6 C-2.99 6 -3.98 6 -5 6 C-5.06574219 6.57492187 -5.13148438 7.14984375 -5.19921875 7.7421875 C-6.32127654 10.90584313 -8.1735178 12.09263596 -10.8125 14.125 C-11.68519531 14.80820312 -12.55789063 15.49140625 -13.45703125 16.1953125 C-15.59781513 17.71457848 -17.61594948 18.9218979 -20 20 C-14.03657272 12.78111435 -7.66926387 5.44270339 0 0 Z " fill="#4D689D" transform="translate(558,473)"/>
<path d="M0 0 C0.66 0 1.32 0 2 0 C0.58163643 5.1576857 -1.67391575 9.79975258 -5 14 C-5.66 14 -6.32 14 -7 14 C-7.33 14.99 -7.66 15.98 -8 17 C-8.99 16.67 -9.98 16.34 -11 16 C-9.21930777 13.32585011 -7.42369436 10.66206765 -5.625 8 C-5.11710937 7.236875 -4.60921875 6.47375 -4.0859375 5.6875 C-3.59609375 4.965625 -3.10625 4.24375 -2.6015625 3.5 C-2.15119629 2.8296875 -1.70083008 2.159375 -1.23681641 1.46875 C-0.82866699 0.9840625 -0.42051758 0.499375 0 0 Z " fill="#435E92" transform="translate(480,602)"/>
<path d="M0 0 C1.60517097 0.08733576 3.20921662 0.19552224 4.8125 0.3125 C6.15248047 0.39951172 6.15248047 0.39951172 7.51953125 0.48828125 C10.36103948 1.07448216 11.11060908 1.89091246 13 4 C15.60611077 4.72197162 15.60611077 4.72197162 18 5 C18 5.33 18 5.66 18 6 C11.68609846 6.54903492 6.60731414 4.94330282 1 2 C0.67 1.34 0.34 0.68 0 0 Z " fill="#3E517E" transform="translate(692,779)"/>
<path d="M0 0 C4.52615993 3.67832017 8.39424999 7.41086363 12 12 C10.68 11.67 9.36 11.34 8 11 C8 10.34 8 9.68 8 9 C7.236875 8.7525 6.47375 8.505 5.6875 8.25 C2.72208305 6.8707363 1.61639727 5.80742685 0 3 C0 2.01 0 1.02 0 0 Z " fill="#91A5C1" transform="translate(681,348)"/>
<path d="M0 0 C4.09107168 0.74383122 8.06724871 1.63866302 12 3 C12.33 3.99 12.66 4.98 13 6 C8.02693484 5.50269348 4.36200187 4.44697666 0 2 C0 1.34 0 0.68 0 0 Z " fill="#3C507E" transform="translate(649,761)"/>
<path d="M0 0 C0.66 0 1.32 0 2 0 C3 3 3 3 2 6 C3.98 5.67 5.96 5.34 8 5 C7.01 6.98 6.02 8.96 5 11 C4.01 10.67 3.02 10.34 2 10 C1.34 6.7 0.68 3.4 0 0 Z " fill="#DCEDF9" transform="translate(511,512)"/>
<path d="M0 0 C0.33 1.32 0.66 2.64 1 4 C2.65 3.67 4.3 3.34 6 3 C6 3.99 6 4.98 6 6 C4.35 6.66 2.7 7.32 1 8 C-0.42944945 5.64561267 -1.08661261 4.51967567 -0.625 1.75 C-0.41875 1.1725 -0.2125 0.595 0 0 Z " fill="#405688" transform="translate(454,602)"/>
<path d="M0 0 C4.95 0 9.9 0 15 0 C12.12488551 2.87511449 8.89517306 2.83614951 5 3 C2 2.5625 2 2.5625 0 2 C0 1.34 0 0.68 0 0 Z " fill="#6083BC" transform="translate(610,389)"/>
<path d="M0 0 C1.32 0 2.64 0 4 0 C4 0.66 4 1.32 4 2 C5.423125 2.2165625 5.423125 2.2165625 6.875 2.4375 C10 3 10 3 12 4 C12 4.66 12 5.32 12 6 C10.37433394 5.52309796 8.74948689 5.04340334 7.125 4.5625 C6.22007812 4.29566406 5.31515625 4.02882813 4.3828125 3.75390625 C2 3 2 3 0 2 C0 1.34 0 0.68 0 0 Z " fill="#4F628F" transform="translate(516,709)"/>
<path d="M0 0 C0.33 0.66 0.66 1.32 1 2 C1.66 2 2.32 2 3 2 C2.34 5.3 1.68 8.6 1 12 C-1.23551759 8.64672361 -1.17283528 8.09256343 -0.625 4.3125 C-0.51414062 3.50425781 -0.40328125 2.69601562 -0.2890625 1.86328125 C-0.19367188 1.24839844 -0.09828125 0.63351562 0 0 Z " fill="#536E9F" transform="translate(452,561)"/>
<path d="M0 0 C0.66 0 1.32 0 2 0 C0.88333826 3.34998521 0.25305075 3.79340222 -2.5625 5.6875 C-3.20316406 6.12449219 -3.84382813 6.56148438 -4.50390625 7.01171875 C-4.99761719 7.33785156 -5.49132812 7.66398437 -6 8 C-5.67 6.35 -5.34 4.7 -5 3 C-3.35 2.67 -1.7 2.34 0 2 C0 1.34 0 0.68 0 0 Z " fill="#5775A9" transform="translate(466,490)"/>
<path d="M0 0 C-0.33 1.32 -0.66 2.64 -1 4 C-3.62113708 4 -5.50935112 3.68707555 -8 3 C-3.375 0 -3.375 0 0 0 Z " fill="#D6E8F7" transform="translate(485,593)"/>
<path d="M0 0 C1.32 0.33 2.64 0.66 4 1 C-0.455 4.465 -0.455 4.465 -5 8 C-5.33 7.01 -5.66 6.02 -6 5 C-5.195625 4.731875 -4.39125 4.46375 -3.5625 4.1875 C-2.716875 3.795625 -1.87125 3.40375 -1 3 C-0.67 2.01 -0.34 1.02 0 0 Z " fill="#E1EDF8" transform="translate(486,507)"/>
<path d="M0 0 C0.33 1.32 0.66 2.64 1 4 C0.4225 4.103125 -0.155 4.20625 -0.75 4.3125 C-3.32049158 5.09792798 -4.93657284 6.30504197 -7 8 C-7.66 7.67 -8.32 7.34 -9 7 C-6.03 4.69 -3.06 2.38 0 0 Z " fill="#E3F2FA" transform="translate(472,488)"/>
<path d="M0 0 C1.12894876 0.93274109 2.25300876 1.87140122 3.375 2.8125 C4.00148438 3.33457031 4.62796875 3.85664063 5.2734375 4.39453125 C7 6 7 6 9 9 C5.05860922 7.33248852 2.2107188 4.77289351 -1 2 C-0.67 1.34 -0.34 0.68 0 0 Z " fill="#8DA3C0" transform="translate(586,256)"/>
<path d="M0 0 C2.60334924 2.71182212 2.99456691 3.89133813 3.1875 7.75 C3.0946875 9.35875 3.0946875 9.35875 3 11 C0.60236815 8.60236815 0.65719414 7.66726502 0.375 4.375 C0.30023438 3.55773437 0.22546875 2.74046875 0.1484375 1.8984375 C0.09945313 1.27195312 0.05046875 0.64546875 0 0 Z " fill="#4B6796" transform="translate(506,498)"/>
<path d="M0 0 C0.99 0.33 1.98 0.66 3 1 C0.69 3.31 -1.62 5.62 -4 8 C-4.33 7.01 -4.66 6.02 -5 5 C-3.625 3.5 -3.625 3.5 -2 2 C-1.34 2 -0.68 2 0 2 C0 1.34 0 0.68 0 0 Z " fill="#D9E5F4" transform="translate(548,479)"/>
<path d="M0 0 C2.97 0.99 5.94 1.98 9 3 C9 3.33 9 3.66 9 4 C2.47692308 4.36923077 2.47692308 4.36923077 0.0625 2.5 C-0.4634375 1.7575 -0.4634375 1.7575 -1 1 C-0.67 0.67 -0.34 0.34 0 0 Z " fill="#3C5487" transform="translate(529,713)"/>
<path d="M0 0 C0.99 0.33 1.98 0.66 3 1 C-0.465 3.97 -0.465 3.97 -4 7 C-4 4 -4 4 -2 1.8125 C-1.34 1.214375 -0.68 0.61625 0 0 Z " fill="#DAE7F4" transform="translate(540,487)"/>
<path d="M0 0 C1.32 0.66 2.64 1.32 4 2 C-0.75 6 -0.75 6 -3 6 C-1.125 1.125 -1.125 1.125 0 0 Z " fill="#4F6EA6" transform="translate(475,482)"/>
<path d="M0 0 C1.12894876 0.93274109 2.25300876 1.87140122 3.375 2.8125 C4.00148438 3.33457031 4.62796875 3.85664063 5.2734375 4.39453125 C7 6 7 6 9 9 C5.55862568 7.4705003 2.7777867 5.54630448 0 3 C0 2.01 0 1.02 0 0 Z " fill="#8EA4BF" transform="translate(713,379)"/>
<path d="M0 0 C4.08718695 -0.24042276 7.17679443 0.57741188 11 2 C9.4375 3.1875 9.4375 3.1875 7 4 C3.25 2.625 3.25 2.625 0 1 C0 0.67 0 0.34 0 0 Z " fill="#4D628F" transform="translate(534,717)"/>
<path d="M0 0 C2.1875 0.3125 2.1875 0.3125 4 1 C2.35 2.65 0.7 4.3 -1 6 C-1.66 5.67 -2.32 5.34 -3 5 C-3 3 -3 3 -1.75 1.3125 C-1.1725 0.879375 -0.595 0.44625 0 0 Z " fill="#455E93" transform="translate(463,601)"/>
</svg>
