<svg xmlns="http://www.w3.org/2000/svg" viewBox="0 0 128 128" fill="none">
  <rect width="128" height="128" rx="28" fill="url(#g)"/>
  <defs>
    <linearGradient id="g" x1="0" y1="0" x2="128" y2="128" gradientUnits="userSpaceOnUse">
      <stop offset="0%" stop-color="#6366f1"/>
      <stop offset="100%" stop-color="#818cf8"/>
    </linearGradient>
  </defs>
  <path d="M42 30h20l6 8h18a4 4 0 014 4v44a4 4 0 01-4 4H42a4 4 0 01-4-4V34a4 4 0 014-4z" fill="#fff" opacity=".95"/>
  <path d="M56 52l6 16h6l6-16h-5l-3.5 11L56 52z" fill="#6366f1"/>
  <circle cx="88" cy="40" r="8" fill="#fbbf24"/>
  <path d="M86 36l2 4 2-4a2.5 2.5 0 00-4 0z" fill="#fff" opacity=".9"/>
  <path d="M85 40l3 8 3-8" stroke="#fff" stroke-width="1.5" stroke-linecap="round" fill="none" opacity=".9"/>
  <defs>
    <linearGradient id="g" x1="0" y1="0" x2="128" y2="128" gradientUnits="userSpaceOnUse">
      <stop offset="0%" stop-color="#6366f1"/>
      <stop offset="100%" stop-color="#818cf8"/>
    </linearGradient>
  </defs>
</svg>
